# xmcd
# 
# Track frame offsets:
#     150
#     13895
#     32002
#     48305
#     68712
#     83402
#     95070
#     115255
#     134140
#     153150
#     172857
#     203450
# 
# Disc length: 3063
# 
# Revision: 2
# Processed by: cddbd v1.5.2PL0 Copyright (c) Steve Scherf et al.
# Submitted via: fre:ac v1.0.17
# 
DISCID=930bf50c
DTITLE=チリヌルヲワカ - イロハ
DYEAR=2005
DGENRE=Rock
TTITLE0=カスガイ
TTITLE1=はなむけ
TTITLE2=タルト
TTITLE3=苔の生したこんな代は
TTITLE4=シガー
TTITLE5=灰と朗
TTITLE6=蜻蛉
TTITLE7=ノイロニテイル
TTITLE8=紫紺ノイズ
TTITLE9=ヨスガ
TTITLE10=コノハギス
TTITLE11=なずき
EXTD=YEAR: 2005
EXTT0=
EXTT1=
EXTT2=
EXTT3=
EXTT4=
EXTT5=
EXTT6=
EXTT7=
EXTT8=
EXTT9=
EXTT10=
EXTT11=
PLAYORDER=
